<?xml version="1.0" encoding="UTF-8"?>
<svg id="Camada_2" data-name="Camada 2" xmlns="http://www.w3.org/2000/svg" viewBox="0 0 1139.47 1544.8">
  <defs>
    <style>
      .cls-1 {
        fill: #f0f6fc;
      }
    </style>
  </defs>
  <g id="Camada_1-2" data-name="Camada 1">
    <path class="cls-1" d="M708.2,1129.15c4.62,91.7-17.02,209.51-108.83,210.57s-212.15-119.66-213.2-211.47c-1.06-91.81,72.52-167.1,164.33-168.15,91.81-1.06,153.43,84.22,157.7,169.05Z"/>
    <path class="cls-1" d="M103.58,161.77l-40.01,1082.54c-.03.9-.06,1.8-.07,2.7-1.61,101.9,120.61,155.55,195.71,86.66l178.7-249.12c19.5-27.19,46.44-48.32,77.77-60.07,1.32-.5,2.65-.98,3.98-1.44,27.2-9.51,56.47-11.44,84.84-6.4l355.6,63.1c99.97-1.12,154.36-119.05,88.72-194.46-.7-.81-1.42-1.61-2.15-2.41L314.95,84.05C241.44,3.8,107.6,53.01,103.58,161.77Z"/>
    <path d="M1084.96,856.15c-.95-1.1-1.94-2.2-2.91-3.27L350.34,54.11C318.38,19.22,275.23,0,228.83,0c-.93,0-1.86.02-2.8.03-.86-.01-1.73-.03-2.6-.03-20.62,0-40.92,3.77-60.34,11.2-19.46,7.45-37.1,18.22-52.44,32.02-28.61,25.73-46.81,60.14-52.37,98.32-7.72,25.12-13.02,54.01-14.39,86.53L.09,1413.11c-.03.98-.06,1.97-.08,2.94-1.76,111.56,132.03,170.28,214.24,94.86l136.67-190.54c34.36,88.05,138.77,178.19,221.86,177.24,89.02-1.03,133.47-100.94,152.56-187.94,18.77-85.6,16.84-137.84,17.56-159.2,0,0,153.51,33.38,203.87,47.65,138.68,39.28,181.68-96.09,191.07-171.19,7.54-60.3-11.34-123.05-52.89-170.78ZM601.81,1016.62c-10.1-1.79-20.31-2.7-30.5-2.7-18.44,0-36.82,2.98-54.34,9.11-1.33.47-2.66.95-3.98,1.44-31.33,11.74-58.27,32.88-77.77,60.07l-178.7,249.12c-22.53,20.66-49.29,30.3-75.68,30.92-59.64-1.36-115.74-48.32-114.65-117.57.01-.9.03-1.79.06-2.7L106.28,161.76c.65-17.72,4.76-33.87,11.48-48.12,20.11-42.65,63.71-68.42,108.78-69.26,30.58.78,61.44,13.17,85.71,39.67l731.72,798.79c.73.8,1.45,1.6,2.15,2.41,64.63,74.25,12.9,189.72-84.14,194.33l-360.18-62.96ZM698.84,1135.24c-.23,86.91-25.54,185.28-109.41,186.25-.39,0-.8.01-1.2.01-61.77,0-136.11-54.55-178.33-118.1-.87-1.31-1.71-2.62-2.56-3.94l63.91-89.09c14.71-20.5,34.52-35.85,57.31-44.39,1.01-.38,2.04-.75,3.05-1.1,12.57-4.39,25.92-6.62,39.71-6.62,7.55,0,15.2.68,22.75,2.02l99.65,17.68c2.45,10.87,4,21.93,4.55,32.98.4,7.94.61,16.07.57,24.3h0Z"/>
  </g>
</svg>