<?xml version="1.0" encoding="UTF-8"?>
<svg id="Camada_1" data-name="Camada 1" xmlns="http://www.w3.org/2000/svg" viewBox="0 0 2000 2000">
  <defs>
    <style>
      .cls-1 {
        fill: #f4f4f4;
      }
    </style>
  </defs>
  <circle class="cls-1" cx="1000" cy="1000" r="1000"/>
  <path d="M1627.03,1155.25v-161.91h0V312.85h-287.1l-228.73,547.84h-14.12V312.85h-163.79v.07H372.97v288.98l547.84,228.73v14.12H372.97v161.91h.01v680.49h287.1l228.73-547.84h14.12v547.84h163.79v-.07h560.31v-288.98l-547.83-228.73v-14.12h547.83ZM1451,452.16h14.12v541.18h-240.07l225.95-541.18ZM512.28,490.83v-14.12h421.01v189.9l-421.01-175.78ZM549.01,1547.84h-14.12v-541.18h240.07l-225.95,541.18ZM1487.72,1509.17v14.12h-421v-189.9l421,175.78Z"/>
</svg>
